<?xml version="1.0" encoding="utf-8"?>
<!-- Generator: Adobe Illustrator 17.1.0, SVG Export Plug-In . SVG Version: 6.00 Build 0)  -->
<!DOCTYPE svg PUBLIC "-//W3C//DTD SVG 1.1//EN" "http://www.w3.org/Graphics/SVG/1.1/DTD/svg11.dtd">
<svg version="1.1" id="Layer_1" focusable="false" xmlns="http://www.w3.org/2000/svg" xmlns:xlink="http://www.w3.org/1999/xlink"
	 x="0px" y="0px" viewBox="0 0 612 792" enable-background="new 0 0 612 792" xml:space="preserve">
<path fill="#FFFFFF" d="M21.9,226.6h568.3c12.1,0,21.9-9.8,21.9-21.9v-54.6c0-12.1-9.8-21.9-21.9-21.9H21.9C9.8,128.3,0,138,0,150.1
	v54.6C0,216.8,9.8,226.6,21.9,226.6z M21.9,445.2h568.3c12.1,0,21.9-9.8,21.9-21.9v-54.6c0-12.1-9.8-21.9-21.9-21.9H21.9
	C9.8,346.8,0,356.6,0,368.7v54.6C0,435.4,9.8,445.2,21.9,445.2z M21.9,663.8h568.3c12.1,0,21.9-9.8,21.9-21.9v-54.6
	c0-12.1-9.8-21.9-21.9-21.9H21.9C9.8,565.4,0,575.2,0,587.3v54.6C0,654,9.8,663.8,21.9,663.8z"/>
</svg>
